<?xml version="1.0" encoding="utf-8"?>
<!-- Generator: Adobe Illustrator 25.0.1, SVG Export Plug-In . SVG Version: 6.00 Build 0)  -->
<svg version="1.1" id="OBJECTS" xmlns="http://www.w3.org/2000/svg" xmlns:xlink="http://www.w3.org/1999/xlink" x="0px" y="0px"
	 viewBox="0 0 733.21 460.73" style="enable-background:new 0 0 733.21 460.73;" xml:space="preserve">
<style type="text/css">
	.st0{fill:#0C7EEC;}
	.st1{fill:#095ACE;}
	.st2{fill:#7DD7FF;}
	.st3{fill:#FFFFFF;}
	.st4{fill:#8AE1FF;}
	.st5{clip-path:url(#SVGID_2_);}
	.st6{fill:#0043AE;}
	.st7{opacity:0.17;fill:#000E70;}
	.st8{opacity:0.56;}
	.st9{fill:#01277C;}
</style>
<g>
	<g>
		<path class="st0" d="M726.45,399.4c-42.04,35.1-147.8,55.87-203.69,22.16c-55.89-33.71-113.16-76.67-197.9-44.34
			c-57.9,22.09-109.46,26.51-157.84,13.82c-2.08-0.55-4.15-1.12-6.21-1.73c-20.23-5.95-39.91-14.92-59.29-26.86
			c-67.44-41.58-84.32-135.7-60.97-215.42c9.72-33.18,30.38-61.91,57.84-84.08c0.03-0.02,0.05-0.04,0.08-0.07
			c1.87-1.51,3.77-2.99,5.7-4.44c0.05-0.04,0.12-0.08,0.17-0.13c0.03-0.01,0.04-0.03,0.06-0.04c0.03-0.03,0.06-0.05,0.09-0.07
			C151.01,23.5,214.9,6.8,277.95,17.4c73.64,12.38,107.97,51.42,116.14,82.74c3.41,13.09,2.26,24.83-2.51,32.73
			c-16.16,26.79-56.34,21.71-81.82-8.56c-25.48-30.27-50.28-42.25-91.85-38.09c-55.65,5.57-88.22,36.03-103.46,89.59
			c-16.66,58.56-4.62,136.27,65.59,154.92c9.47,2.52,19.52,3.43,30,3.14h0.03c61.04-1.61,136.58-43.53,194.81-44.18
			c4.05-0.05,8.01,0.1,11.88,0.48c0.05,0,0.11,0.01,0.16,0.02c1.16,0.11,2.32,0.24,3.47,0.41c0.56,0.07,1.13,0.15,1.68,0.24
			c33.8,5.33,63.88,23.72,92.54,44.6c0.01,0.01,0.02,0.02,0.03,0.02c5.94,4.33,11.81,8.76,17.65,13.21c0.04,0.03,0.06,0.05,0.1,0.08
			c0.71,0.53,1.41,1.07,2.11,1.6c22.9,17.48,45.2,34.97,68.17,46.73C659.83,426.34,725.13,399.93,726.45,399.4z"/>
		<path class="st1" d="M726.45,399.4c-42.04,35.1-147.8,55.87-203.69,22.16c-55.89-33.71-113.16-76.67-197.9-44.34
			c-57.9,22.09-109.46,26.51-157.84,13.82c-2.08-0.55-4.15-1.12-6.21-1.73c25.25-3.11,68.06-9.44,107.43-20.33
			c60.78-16.81,97.54-38.25,97.54-38.25s66.18-21.92,118.83,26.28C537.26,405.22,633.13,464.2,726.45,399.4z"/>
		<path class="st0" d="M422.07,290.85c33.8,5.33,63.88,23.72,92.54,44.6c-40.76-26.77-94.72-37.71-154.82-1.22
			c-69.31,42.08-133.26,71.55-192.78,56.8c0,0,0,0,0.01,0.01c-22.41-5.87-44.15-15.43-65.5-28.59
			c-67.44-41.58-84.32-135.7-60.97-215.42c9.72-33.18,30.38-61.91,57.84-84.08c0.03-0.02,0.05-0.04,0.08-0.07
			c1.87-1.51,3.77-2.99,5.7-4.44c0.05-0.04,0.12-0.08,0.17-0.13c0.03-0.01,0.04-0.03,0.06-0.04c0.03-0.03,0.06-0.05,0.09-0.07
			C151.01,23.5,214.9,6.8,277.95,17.4c73.64,12.38,107.97,51.42,116.14,82.74c3.41,13.09,2.26,24.83-2.51,32.73
			c-16.16,26.79-56.34,21.71-81.82-8.56c-25.48-30.27-50.28-42.25-91.85-38.09c-55.65,5.57-88.22,36.03-103.46,89.59
			c-16.66,58.56-4.62,136.27,65.59,154.92c9.47,2.52,19.52,3.43,30,3.14h0.03c61.04-1.61,136.58-43.53,194.81-44.18
			c4.05-0.05,8.01,0.1,11.88,0.48c0.05,0,0.11,0.01,0.16,0.02c1.16,0.11,2.32,0.24,3.47,0.41
			C420.95,290.68,421.52,290.76,422.07,290.85z"/>
		<path class="st1" d="M210.06,333.87c61.04-1.61,136.58-43.53,194.81-44.18c-64.67,2.61-184.68,80.02-253.89,65.51
			C77.22,339.74,43.31,251.69,49.25,170.79c4.66-63.21,35.74-96.36,49.13-107.84c0.03-0.02,0.05-0.04,0.08-0.07
			c2.9-2.48,4.95-3.93,5.7-4.44c0.05-0.04,0.12-0.08,0.17-0.13c0.03-0.01,0.04-0.03,0.06-0.04c0.05-0.04,0.08-0.05,0.08-0.05
			s0-0.01,0.01-0.02C151.01,23.5,214.9,6.8,277.95,17.4c73.64,12.38,107.97,51.42,116.14,82.74c3.41,13.09,2.26,24.83-2.51,32.73
			c-16.16,26.79-56.34,21.71-81.82-8.56c-25.48-30.27-50.28-42.25-91.85-38.09c-55.65,5.57-88.22,36.03-103.46,89.59
			c-16.66,58.56-4.62,136.27,65.59,154.92c9.47,2.52,19.52,3.43,30,3.14H210.06z"/>
		<path class="st0" d="M391.58,132.87c-16.16,26.79-56.34,21.71-81.82-8.56c-25.48-30.27-50.28-42.25-91.85-38.09
			c-55.65,5.57-88.22,36.03-103.46,89.59c-16.66,58.56-4.62,136.27,65.59,154.92c9.47,2.52,19.52,3.43,30,3.14
			c-103.44,6.81-139.46-86.45-123.3-163.12c18.13-86,97-129.66,169.06-117.33c65.81,11.27,83.6,56.82,99.31,70.89
			c15.7,14.07,44.8,2.55,38.99-24.17C397.5,113.24,396.34,124.97,391.58,132.87z"/>
		<path class="st2" d="M362.65,96.86c1.15,3.11,2.76,6.84,6.06,7.19c2.58,0.27,4.91-1.96,5.61-4.46c0.7-2.5,0.14-5.17-0.55-7.68
			c-4.64-16.78-17.17-35.81-33.85-42.69c-3.11-1.28-13.97-5.06-14.59,0.79c-0.41,3.85,5.59,7.14,8.08,8.95
			c4.04,2.93,7.85,6.09,11.34,9.67C352.58,76.66,358.75,86.33,362.65,96.86z"/>
		<path class="st2" d="M379.93,114.7c0,2.67-2.17,4.84-4.84,4.84c-2.67,0-4.84-2.17-4.84-4.84s2.17-4.84,4.84-4.84
			C377.77,109.86,379.93,112.02,379.93,114.7z"/>
		<path class="st2" d="M126.41,70.21c-7.3,4.88-14.08,10.51-20.06,16.88c-4.58,4.88-8.72,10.18-12.33,15.82
			c-1.57,2.45-4.02,5.13-2.08,8c1.91,2.81,4.9,1.58,6.9-0.55c2.65-2.82,4.56-6.24,6.73-9.45c11.56-17.1,30.19-27.94,48.74-37.01
			c2.27-1.11,7.77-4.21,5.58-7.61c-1.75-2.73-6.88,0.15-8.93,0.98C142.43,60.74,134.13,65.06,126.41,70.21z"/>
		<circle class="st2" cx="89.54" cy="118.46" r="3.76"/>
		<path class="st2" d="M409.09,302.84c-0.56,1.5-0.56,3.17,0.34,4.47c0.82,1.19,2.24,1.87,3.68,2.08c2.17,0.31,4.22-0.45,6.35-0.54
			c2.77-0.12,5.7,0.4,8.4,0.94c5.36,1.08,10.54,2.99,15.46,5.37c9.36,4.52,17.85,10.62,26.71,16.07c1.39,0.85,2.84,1.71,4.46,1.89
			c1.62,0.18,3.45-0.53,4.08-2.03c0.86-2.07-0.86-4.26-2.49-5.81c-7.68-7.29-16.41-13.47-25.81-18.34
			c-7.62-3.94-17.56-9.16-26.28-9.65c-4.66-0.26-10.04-0.34-13.5,3.31C409.89,301.23,409.4,302.01,409.09,302.84z"/>
		<path class="st2" d="M492.43,337.73c0,2.54-2.06,4.6-4.6,4.6c-2.54,0-4.6-2.06-4.6-4.6c0-2.54,2.06-4.6,4.6-4.6
			C490.37,333.13,492.43,335.19,492.43,337.73z"/>
		<path class="st2" d="M576.33,392.53c1.85-1.2-4.77-7.3-6.24-8.36c-6.08-4.41-12.16-8.83-18.25-13.24
			c-3.39-2.46-8.61-6.99-13.3-6.4c-5.62,0.71,1.92,5.7,3.8,7.26c5.26,4.36,10.74,8.46,16.44,12.23c3.16,2.1,6.39,4.09,9.69,5.97
			c1.49,0.85,3.48,2.08,5.13,2.47C575.05,392.82,575.91,392.8,576.33,392.53z"/>
		<path class="st2" d="M144.38,357.58c0.97,0.48,1.97,0.97,3.05,1.05c1.08,0.07,2.27-0.38,2.74-1.35c0.57-1.16-0.07-2.55-0.88-3.56
			c-2.08-2.57-5.24-3.95-8.22-5.39c-5.53-2.67-10.81-5.85-15.76-9.48c-2.48-1.82-4.87-3.74-7.17-5.77
			c-1.76-1.55-3.86-4.61-6.16-5.25c-1.68-0.47-3.87,0.4-4.12,2.27c-0.32,2.44,3.03,5.3,4.54,6.83c4.14,4.22,8.91,7.76,13.91,10.89
			C132.12,351.45,138.26,354.52,144.38,357.58z"/>
		<path class="st2" d="M158.9,359.88c0,1.58-1.28,2.87-2.87,2.87c-1.58,0-2.87-1.28-2.87-2.87c0-1.58,1.28-2.87,2.87-2.87
			C157.61,357.01,158.9,358.3,158.9,359.88z"/>
		<path class="st3" d="M194.78,24.03c0,0,66.52-15.79,122.1,10.02C316.88,34.05,263.73,14.61,194.78,24.03z"/>
		<path class="st3" d="M65.7,161.62c0,0-15.49,64.69,12.76,115.72C78.45,277.34,42.61,238.77,65.7,161.62z"/>
		<path class="st3" d="M592.67,400.96c0,0,42.31,23.24,83.83,13.98C676.49,414.94,637.31,431.03,592.67,400.96z"/>
		<path class="st3" d="M245.42,376c0,0,64.76-10.83,97.32-48.3C342.73,327.7,318.23,371.1,245.42,376z"/>
	</g>
	<g>
		<g>
			<circle class="st4" cx="229.36" cy="209.68" r="156.6"/>
			<g>
				<defs>
					<circle id="SVGID_1_" cx="229.36" cy="209.68" r="156.6"/>
				</defs>
				<clipPath id="SVGID_2_">
					<use xlink:href="#SVGID_1_"  style="overflow:visible;"/>
				</clipPath>
				<g class="st5">
					<g>
						<path class="st6" d="M112.98,223.61c-2.9,10.73-2.48,13.63-0.83,19.81c1.66,6.19,0.41,10.32-4.54,16.51
							c-4.95,6.18-7.02,9.49-9.08,17.34c-1.72,6.54-0.28,13.94-4.08,20.77c-27.6-43.55-34.61-100.44-15.76-148.57
							c3.22,2.33,9.27,7.27,10.76,12.65c2.06,7.43,7.02,24.77,9.9,30.54c2.89,5.78,7.02,8.26,10.73,11.14
							C113.81,206.69,115.87,212.88,112.98,223.61z"/>
						<path class="st6" d="M244.62,83.71c-2.89,6.19-5.36,6.61-12.61,13.2c-7.24,6.61-23.7,13.2-31.13,14.86
							c-7.43,1.65-10.73-1.66-15.26-1.66c-4.54,0-13.21,8.26-18.37,11.56c-5.16,3.3-10.94,6.18-10.94-2.48
							c0-8.66,2.47-19.81,3.7-26.41c1.23-6.61,0.42-15.69,0.01-23.52c-0.13-2.37,0.8-5.08,2.37-7.83
							c13.49-6.09,27.69-10.34,42.18-12.77c4.29,1.82,8.73,4.3,11.99,6.15c5.78,3.3,17.34,7.84,20.63,11.97
							C240.5,70.92,247.51,77.52,244.62,83.71z"/>
						<path class="st6" d="M391.93,168.3c-10.38-44.73-36.21-77.34-69.09-97.55c-2.99,0.98-6.1,2.52-7.65,4.29
							c-2.89,3.3-2.06,9.49,0,11.55c2.06,2.06-0.41,11.97,0.82,13.63c1.24,1.65,9.9,2.06,13.2,4.12c3.31,2.06,0,4.54-2.89,4.95
							c-2.89,0.41-3.3,4.13-6.19,7.02c-2.89,2.89,2.82,6.91,1.83,8.62c-0.99,1.7-0.58,5-5.12,5.41c-4.54,0.41-10.73,2.07-14.03,5.37
							c-3.31,3.3-2.4,7.99-6.61,7.26c-2.44-0.43-7.62-0.28-10.7-1.55c-3.08-1.26-7.83,0-9.93-1.39c-2.1-1.4,2.94-5.88,4.61-6.3
							c1.68-0.42,7.14-0.56,8.82-2.24c1.69-1.68,0.98-3.49-0.7-4.76c-1.68-1.26-5.32-2.66-7-2.38c-1.68,0.27-7,1.01-9.93,0.58
							c-2.94-0.44-9.52-1.28-13.15-1.7c-3.64-0.42-8.82-0.98-12.03-1.12c-3.22-0.15-7.28,3.49-8.68,5.88
							c-1.4,2.38-3.08,3.49-1.13,4.9c1.96,1.39,6.23,0.56,8.93-0.28c2.69-0.83,5.21-2.1,4.51-0.7c-0.7,1.39-4.9,2.24-3.49,3.78
							c1.39,1.54,4.9-0.42,7.83-0.42c2.94,0,6.02-0.14,7.56,1.82c1.54,1.96,2.1,2.8,1.12,4.49c-0.98,1.68-3.36,2.94-6.29,3.07
							c-2.95,0.14-6.16-1.68-8.27-2.24c-2.09-0.56-5.31-0.14-7.14,0.14c-1.82,0.28-1.39,4.06-3.36,5.18
							c-1.96,1.12-8.26,1.39-10.36,0.98c-2.1-0.42-6.15-1.96-8.12-1.12c-1.96,0.83-3.08,3.63-3.92,4.61c-0.84,0.98,0,2.52-1.54,3.22
							c-1.54,0.7-7,1.68-9.52,1.96c-2.51,0.27-5.31-0.42-7.14,1.68c-1.82,2.1-5.17,9.66-5.46,12.31c-0.27,2.66-1.68,7,0.84,9.1
							c2.51,2.1,9.93,5.32,13.44,6.3c3.49,0.98,13.29,0.83,15.81-2.24c2.51-3.08,3.63-7,7.27-7.7c3.64-0.71,7.42-3.22,10.22-4.34
							c2.8-1.13,4.69-0.84,5.99,1.68c1.29,2.51,2.69,6.85,2.55,8.95c-0.15,2.1-4.06,6.72-3.22,8.54c0.83,1.82,1.12,0.98,3.22,0
							c2.09-0.98,4.19-2.39,4.61-4.62c0.42-2.24,1.26-0.41,2.39,0.42c1.12,0.84,3.63,2.66,2.94-0.7c-0.7-3.36-1.82-4.76-2.38-8.12
							c-0.56-3.36-4.34-6.58-0.71-8.68c3.64-2.1,7.56-3.92,9.66-3.08c2.1,0.84,3.64,2.95,5.18,4.48c1.53,1.54,0,5.61,3.63,6.16
							c3.64,0.56,8.12-2.24,8.96-4.76c0.83-2.52,0.83-4.34,2.66-6.15c1.82-1.83,1.95-1.54,4.48-3.08c2.52-1.54,4.9-0.27,6.15,1.96
							c1.27,2.24,1.12,6.02,2.1,8.95c0.98,2.95,4.9,6.72,3.08,9.93c-1.83,3.22-3.08,7-5.88,4.62c-2.8-2.38-7.14-5.32-9.66-5.74
							c-2.51-0.41-6.29-0.14-7.27,0.84c-0.98,0.98-1.12,3.08-0.84,5.88c0.28,2.8,1.54,8.95,0.71,10.63
							c-0.84,1.68-2.11,3.49-5.83,1.31c-3.72-2.19-7.11-3.06-10.99-2.19c-3.89,0.87-3.89,2.24-7.39,3.2
							c-3.5,0.96-3.28,2.93-4.81,4.47c-1.54,1.53-7.67,0.65-10.29,0c-2.63-0.66-4.6-2.19-7.44-3.5c-2.85-1.32-1.32-1.97-1.32-4.16
							c0-2.19-2.85-2.85-4.38-3.28c-1.53-0.44-8.97,1.53-13.13,2.62c-4.15,1.1-15.97,4.16-18.6,4.38c-2.63,0.22-7,1.53-8.31,3.5
							c-1.32,1.97-1.32,3.94-3.29,6.78c-1.96,2.85-5.47,5.25-7.87,6.78c-2.41,1.53-9.2,4.59-10.95,6.78
							c-1.75,2.19-5.25,2.63-5.25,6.79c0,4.15,2.62,13.35,4.59,16.19c1.97,2.85,5.25,8.1,4.82,11.82
							c-0.44,3.72-0.88,6.79,0.43,10.29c1.32,3.5,4.59,5.48,5.48,9.41c0.87,3.94,6.34,5.69,9.4,8.1c3.06,2.4,12.69,1.09,18.17,2.19
							c5.47,1.09,8.97-2.63,12.48-0.66c3.49,1.97,7.66-4.16,11.16-3.5c3.49,0.66,8.1,0,9.4,1.97c1.32,1.97,0.88,4.59,2.63,7.44
							c1.75,2.85,2.85,5.69,3.06,8.76c0.22,3.06,0.87,5.25-0.22,8.97c-1.1,3.72-0.87,8.97,0.43,12.48
							c1.32,3.49,2.41,7.87,1.76,10.72c-0.66,2.85-0.23,6.57,1.32,10.5c1.53,3.95,4.37,6.57,5.03,8.98c0.66,2.4,6.14,0,9.2-1.32
							c3.06-1.32,6.57-9.86,11.38-14.22c4.82-4.38,12.48-12.26,14.45-17.73c1.96-5.48,9.19-13.58,10.5-17.95s1.53-10.28,6.34-12.69
							c4.82-2.4,12.04-6.78,15.11-10.72c3.06-3.95,9.85-11.16,12.25-16.2c2.41-5.04,6.78-10.95,8.1-17.07
							c1.32-6.13,0.23-14.22,0-17.73c-0.22-3.5-0.43-5.91-2.4-5.69c-1.97,0.23-4.38,4.16-8.1,5.48c-3.72,1.31-4.59-1.76-8.1-3.07
							c-3.5-1.31-7-1.75-12.04-3.28c-5.04-1.53-8.76-7-12.03-10.07c-3.29-3.06-4.82-4.36-6.14-6.88c-1.31-2.52-1.09-6.24,0.66-7.34
							c1.76-1.09,6.14,0.23,8.31,2.85c2.19,2.63,6.57,6.62,10.73,10.09c4.16,3.48,11.6,3.04,17.94,2.6
							c6.35-0.43,10.95,0.05,15.32-2.6c4.38-2.65,7.23-5.06,8.1-6.59c0.87-1.53-2.19-3.95-5.25-5.91c-3.06-1.97-6.78-1.1-9.86-3.72
							c-3.06-2.63-6.34-5.48-5.03-8.1c1.31-2.63,4.81-3.94,8.1-2.63c3.28,1.32,8.53,4.16,10.94,8.54
							c2.41,4.38,11.82,6.78,13.58,8.97c1.75,2.19,8.75,1.53,12.25,2.4c3.5,0.87,7.22,3.99,8.31,7.03c1.1,3.04,2.19,6.76,5.48,11.57
							c2.47,3.63,3.33,4.65,7.64,5.96C397.09,210.75,396.76,189.12,391.93,168.3z M334,164.29c-1.76,2.63-3.29,2.85-5.59,6.14
							c-2.3,3.28-1.42,7.44-6.02,9.63c-4.59,2.19-5.91,2.4-7-5.04c-1.1-7.44,0-14.22,1.09-16.41c1.1-2.19,1.97-3.5,1.97-3.5
							c2.85-4.16,6.78-5.48,11.16-5.25c4.38,0.22,7.88,1.32,8.76,5.25C339.25,159.03,335.75,161.66,334,164.29z"/>
					</g>
				</g>
			</g>
			<path class="st7" d="M365.34,287.39c-26.99,47.13-77.77,78.88-135.98,78.88c-86.49,0-156.6-70.11-156.6-156.59
				c0-68.82,44.4-127.28,106.11-148.28c-24.29,26.35-39.13,61.55-39.13,100.2c0,81.66,66.2,147.85,147.86,147.85
				C316.13,309.45,342.76,301.38,365.34,287.39z"/>
			<path class="st3" d="M275.03,359.49c-14.44,4.41-29.78,6.78-45.67,6.78c-86.49,0-156.6-70.11-156.6-156.59
				c0-68.82,44.4-127.28,106.11-148.28c-0.38,0.4-0.75,0.81-1.1,1.23c-56.84,23.5-96.83,79.47-96.83,144.79
				c0,86.49,70.11,156.6,156.6,156.6C250.47,364.02,263.02,362.45,275.03,359.49z"/>
			<g>
				<path class="st3" d="M329.44,153.7c1.92,9.34,6.47,17.92,9.34,27.02c4.01,12.7,4.67,26.45,1.89,39.48
					c-0.58,2.72-1.31,5.48-1,8.24c0.31,2.76,1.94,5.59,4.61,6.37c3.27,0.95,6.57-1.44,8.74-4.06c6.68-8.06,8.43-19.12,8.46-29.59
					c0.05-16.94-3.75-34.29-11.35-49.47c-2.41-4.82-7.28-13.65-13.68-13.84C328.61,137.63,328.34,148.37,329.44,153.7z"/>
				
					<ellipse transform="matrix(0.9247 -0.3806 0.3806 0.9247 -22.4272 132.6506)" class="st3" cx="324.18" cy="123.03" rx="8.85" ry="8.85"/>
			</g>
		</g>
		<g class="st8">
			<path class="st9" d="M227.62,237.87c0,2.76-2.24,5.01-5.01,5.01s-5.01-2.24-5.01-5.01c0-2.77,2.24-5.01,5.01-5.01
				S227.62,235.1,227.62,237.87z"/>
			<path class="st9" d="M261.81,236.02c0,1.74-1.41,3.16-3.16,3.16c-1.74,0-3.16-1.41-3.16-3.16c0-1.74,1.41-3.16,3.16-3.16
				C260.39,232.86,261.81,234.27,261.81,236.02z"/>
			<circle class="st9" cx="248.96" cy="274.29" r="9.42"/>
			<circle class="st9" cx="289.48" cy="260.57" r="3.65"/>
			<circle class="st9" cx="310.68" cy="243.58" r="0.71"/>
			<path class="st9" d="M271.09,315.4c0,3.43-2.78,6.22-6.22,6.22c-3.43,0-6.22-2.78-6.22-6.22c0-3.43,2.78-6.22,6.22-6.22
				C268.3,309.18,271.09,311.96,271.09,315.4z"/>
			<path class="st9" d="M212.61,266.09c0,1.24-1.01,2.25-2.25,2.25c-1.24,0-2.25-1.01-2.25-2.25c0-1.24,1.01-2.25,2.25-2.25
				C211.6,263.83,212.61,264.84,212.61,266.09z"/>
			<path class="st9" d="M198.39,228.97c0,1.39-1.13,2.52-2.52,2.52c-1.39,0-2.52-1.13-2.52-2.52c0-1.39,1.13-2.52,2.52-2.52
				C197.26,226.45,198.39,227.58,198.39,228.97z"/>
			<path class="st9" d="M273.49,214.24c0,0.66-0.54,1.2-1.2,1.2s-1.2-0.54-1.2-1.2c0-0.66,0.54-1.2,1.2-1.2
				S273.49,213.57,273.49,214.24z"/>
			<path class="st9" d="M264.32,258.11c0,1.57-1.27,2.84-2.84,2.84c-1.57,0-2.84-1.27-2.84-2.84c0-1.57,1.27-2.84,2.84-2.84
				C263.05,255.28,264.32,256.55,264.32,258.11z"/>
			<circle class="st9" cx="237.13" cy="220.44" r="1.7"/>
			
				<ellipse transform="matrix(0.7071 -0.7071 0.7071 0.7071 -120.2252 284.8696)" class="st9" cx="283.76" cy="287.56" rx="7.24" ry="7.24"/>
		</g>
	</g>
</g>
<g>
	<g>
		<path class="st0" d="M250.59,411.34c1.03-0.78-75.53,16.57-120.05-3.11c-44.52-19.67-59.38-59.03-82.37-54.88
			c-22.99,4.14-31.48,56.95,38.95,78.35C157.54,453.1,237.82,421,250.59,411.34z"/>
		<path class="st3" d="M46.74,364.42c-0.19,1.27,0.84,2.45,2.03,2.92c1.19,0.47,2.51,0.42,3.79,0.47
			c6.77,0.23,13.39,3.34,17.88,8.41c1.2,1.35,2.31,2.88,3.95,3.63c1.64,0.74,4.02,0.26,4.55-1.46c0.33-1.07-0.14-2.21-0.66-3.21
			c-2.39-4.56-6.08-8.4-10.46-11.09c-3.57-2.19-9.24-4.84-13.55-4.43C51.94,359.87,47.14,361.72,46.74,364.42z"/>
		<path class="st3" d="M85.13,382.88c0,1.11-0.9,2.01-2.01,2.01c-1.11,0-2.01-0.9-2.01-2.01c0-1.11,0.9-2.01,2.01-2.01
			C84.24,380.87,85.13,381.77,85.13,382.88z"/>
	</g>
	<g>
		<path class="st0" d="M11.49,329.49c0.66,6.92,7.31,12.72,14.26,12.43c6.95-0.29,13.09-6.63,13.16-13.58
			c0.08-6.89-6.87-14.91-14.04-14.85C17.43,313.55,10.83,322.46,11.49,329.49z"/>
		<path class="st3" d="M24.65,321.44c3.94,0.83,6.88,4.97,6.36,8.96c-0.14,1.06,0.93,2.02,1.99,1.99c1.07-0.03,2-0.84,2.43-1.81
			c0.43-0.98,0.44-2.09,0.33-3.15c-0.46-4.1-3-8.41-6.7-10.41C25.29,314.98,20.06,320.47,24.65,321.44z"/>
		<path class="st3" d="M22.21,319.31c0,1.07-0.87,1.94-1.94,1.94c-1.07,0-1.94-0.87-1.94-1.94c0-1.07,0.87-1.94,1.94-1.94
			C21.34,317.37,22.21,318.24,22.21,319.31z"/>
	</g>
	<g>
		<path class="st0" d="M301.32,407.54c0,0-0.79,13.52-13.48,31.71c-12.68,18.19-38.85,22.99-42.02,7.93
			C242.66,432.12,283.66,431.28,301.32,407.54z"/>
		<path class="st3" d="M266.27,446.27c-0.77,0.54-1.57,1.11-2.01,1.94c-0.44,0.83-0.41,2,0.33,2.58c0.62,0.49,1.5,0.42,2.28,0.28
			c3.5-0.6,6.84-2.05,9.7-4.15c1.41-1.03,6.48-4.85,5.86-6.93C280.81,434.63,267.6,445.34,266.27,446.27z"/>
		<path class="st3" d="M286.14,435.72c0,1.01-0.82,1.83-1.83,1.83s-1.83-0.82-1.83-1.83s0.82-1.83,1.83-1.83
			S286.14,434.71,286.14,435.72z"/>
	</g>
	<g>
		<path class="st0" d="M607.69,385.02c0,0,10.52,8.52,32.51,11.41c21.99,2.88,43.16-13.21,34.17-25.71
			C665.38,358.23,637.13,387.97,607.69,385.02z"/>
		<path class="st3" d="M659.93,385.21c0.92-0.21,1.88-0.41,2.79-0.18c0.91,0.23,1.75,1.04,1.68,1.98c-0.06,0.79-0.7,1.39-1.33,1.87
			c-2.8,2.18-6.12,3.67-9.6,4.38c-1.72,0.35-7.95,1.52-9.07-0.34C641.53,388.11,658.34,385.57,659.93,385.21z"/>
		<path class="st3" d="M638.75,392.79c0.75,0.68,1.91,0.63,2.59-0.12c0.68-0.75,0.63-1.91-0.12-2.59c-0.75-0.68-1.91-0.63-2.59,0.12
			C637.95,390.95,638,392.1,638.75,392.79z"/>
	</g>
	<g>
		<path class="st0" d="M358.67,399.75c-2.93,2.07-5.64,4.59-7.26,7.8c-1.62,3.2-2.01,7.16-0.41,10.37c2.64,5.27,9.54,6.82,15.4,6.24
			c5.87-0.58,11.64-2.66,17.51-2.15c7.12,0.62,13.3,4.9,19.9,7.65c6.6,2.75,15.15,3.59,20.06-1.59
			c10.89-11.49-5.75-23.14-14.07-28.46c-9.07-5.8-16.71-7.94-27.53-7.27C373.8,392.86,365.71,394.79,358.67,399.75z"/>
		<path class="st3" d="M412.48,411.39c0.63,0.76,1.49,1.27,2.22,1.93c1.43,1.32,2.25,3.27,2.19,5.21c-0.06,1.94-0.99,3.84-2.49,5.07
			c-0.89,0.73-2.1,1.46-2.07,2.61c0.03,1.18,1.41,1.88,2.6,1.88c3,0.01,5.42-2.63,6.43-5.45c1.51-4.22,0.48-9.13-2.32-12.57
			c-1.13-1.38-2.16-2.3-3.96-2.38C412.83,407.59,410.59,409.12,412.48,411.39z"/>
		<circle class="st3" cx="408.58" cy="404.6" r="2.33"/>
	</g>
	<g>
		<g>
			<path class="st0" d="M327,16.51c0,0,15.57,3.88,30.82,17.51c15.25,13.63,28.28,19.32,34.31,10.45
				C400,32.91,376.88,3.49,327,16.51z"/>
			<path class="st3" d="M373.35,23.18c2.96,3.29,7.34,5.18,9.86,8.82c1.3,1.88,2.02,4.16,2.03,6.45c0,0.76-0.07,1.54,0.14,2.27
				s0.77,1.44,1.52,1.52c0.77,0.08,1.5-0.52,1.79-1.24c0.29-0.72,0.24-1.53,0.14-2.31c-0.99-7.94-6.28-13.36-12.69-17.52
				C374.56,20.14,371.47,21.09,373.35,23.18z"/>
			<path class="st3" d="M387.15,45.18c0,0.62-0.5,1.13-1.13,1.13c-0.62,0-1.13-0.5-1.13-1.13c0-0.62,0.5-1.13,1.13-1.13
				C386.65,44.05,387.15,44.56,387.15,45.18z"/>
			<path class="st3" d="M370.9,20.07c0,0.51-0.41,0.92-0.92,0.92c-0.51,0-0.92-0.41-0.92-0.92c0-0.51,0.41-0.92,0.92-0.92
				C370.49,19.15,370.9,19.56,370.9,20.07z"/>
		</g>
		<g>
			<path class="st0" d="M392.7,68.39c11.29,4.34,16.2-13.02,5.03-16.45C387.19,48.7,382.79,64.59,392.7,68.39z"/>
			<path class="st3" d="M396.91,57.49c0.38,0.36,0.83,0.65,1.18,1.04c1.16,1.26,0.99,3.26,0.38,4.85c-0.26,0.66-0.56,1.48-0.11,2.03
				c0.35,0.43,1.04,0.45,1.52,0.17c0.48-0.28,0.79-0.77,1.03-1.27c1.23-2.58,0.91-5.71-0.62-8.09c-0.56-0.87-1.23-1.68-2.36-1.53
				C396.4,54.87,395.75,56.38,396.91,57.49z"/>
		</g>
	</g>
	<g>
		<path class="st0" d="M686.97,390.27c0.39,3.12,3.34,5.66,6.48,5.71c3.14,0.05,6.12-2.28,6.97-5.31
			C703.17,380.8,685.7,379.97,686.97,390.27z"/>
		<path class="st3" d="M696.23,390.23c-0.34,0.46-0.87,0.84-0.92,1.41c-0.06,0.69,0.71,1.24,1.4,1.15c0.69-0.09,1.23-0.63,1.58-1.23
			c0.79-1.35,0.82-3.32-0.21-4.56c-0.3-0.36-0.88-0.96-1.41-0.93c-0.71,0.04-0.52,0.91-0.36,1.37
			C696.65,388.41,696.91,389.31,696.23,390.23z"/>
		<path class="st3" d="M695.5,393.76c0,0.53-0.43,0.97-0.97,0.97c-0.53,0-0.97-0.43-0.97-0.97c0-0.53,0.43-0.97,0.97-0.97
			C695.07,392.79,695.5,393.23,695.5,393.76z"/>
	</g>
	<g>
		<g>
			<path class="st0" d="M26.77,64.08c0,0-10-20.18-5.2-37.09c4.8-16.91,23.21-13.91,22.41,0C43.19,40.91,29.17,47.24,26.77,64.08z"
				/>
			<path class="st3" d="M31.75,20.41c0.25,1.32,1.68,1.99,2.67,2.9c1.16,1.06,1.81,2.65,1.72,4.21c-0.07,1.15-0.51,2.27-0.5,3.43
				c0.01,1.16,0.71,2.47,1.87,2.53c1.23,0.07,2.05-1.24,2.44-2.41c0.8-2.42,0.97-5.1,0.12-7.5c-0.74-2.08-2.2-3.76-4.04-4.93
				C34.49,17.68,31.25,17.71,31.75,20.41z"/>
			<circle class="st3" cx="36.64" cy="36.99" r="1.64"/>
		</g>
		<g>
			<path class="st0" d="M26.78,107.55c0,0-0.8-35.97,17.61-63.12c18.41-27.15,46.03-31.06,48.03-11.9
				C94.42,51.71,46.39,67.34,26.78,107.55z"/>
			<path class="st3" d="M82.24,30.78c0.77,2.17-0.04,4.61-1.3,6.54s-2.95,3.55-4.22,5.47c-0.72,1.08-1.28,2.56-0.51,3.61
				c0.85,1.17,2.67,0.89,3.98,0.28c3.91-1.82,6.84-5.62,7.61-9.87c0.65-3.61-0.1-8.95-3.56-10.98c-0.86-0.5-2.49-1.2-3.33-0.29
				C79.59,26.94,81.77,29.46,82.24,30.78z"/>
			<path class="st3" d="M74.91,49.52c0,0.89-0.72,1.61-1.61,1.61c-0.89,0-1.61-0.72-1.61-1.61c0-0.89,0.72-1.61,1.61-1.61
				C74.19,47.91,74.91,48.63,74.91,49.52z"/>
		</g>
		<g>
			<path class="st0" d="M46.92,16.18c0.48,3.85,4.12,6.99,8,7.05c3.88,0.07,7.56-2.81,8.6-6.55C66.91,4.5,45.35,3.47,46.92,16.18z"
				/>
			<path class="st3" d="M58.35,16.13c-0.42,0.57-1.07,1.04-1.13,1.74c-0.07,0.85,0.88,1.53,1.73,1.42c0.85-0.11,1.52-0.78,1.95-1.52
				c0.97-1.67,1.01-4.1-0.26-5.63c-0.37-0.45-1.09-1.19-1.74-1.15c-0.87,0.05-0.64,1.12-0.45,1.69C58.87,13.89,59.19,15,58.35,16.13
				z"/>
			<path class="st3" d="M57.46,20.5c0,0.66-0.53,1.19-1.19,1.19c-0.66,0-1.19-0.53-1.19-1.19c0-0.66,0.53-1.19,1.19-1.19
				C56.92,19.3,57.46,19.84,57.46,20.5z"/>
		</g>
		<g>
			<path class="st0" d="M100.46,29.55c2.66,1.56,6.07,1.6,8.9,0.38c2.83-1.23,5.06-3.63,6.37-6.42c3.72-7.94-2.78-17.31-11.49-13.61
				C96.82,13.05,91.82,24.48,100.46,29.55z"/>
			<path class="st3" d="M109.2,15.16c0.38,0.42,0.86,0.74,1.28,1.12c1.3,1.18,1.93,3.04,1.62,4.77c-0.12,0.68-0.36,1.45,0.06,2
				c0.39,0.51,1.21,0.52,1.75,0.17c0.54-0.35,0.85-0.97,1.06-1.58c0.74-2.14,0.49-4.57-0.55-6.57c-0.89-1.73-2.11-3.2-4.18-2.67
				C108.88,12.76,108.11,13.94,109.2,15.16z"/>
			<path class="st3" d="M112.45,24.88c0,0.59-0.48,1.06-1.06,1.06c-0.59,0-1.06-0.48-1.06-1.06c0-0.59,0.48-1.06,1.06-1.06
				C111.97,23.81,112.45,24.29,112.45,24.88z"/>
		</g>
	</g>
</g>
</svg>
